<?xml version="1.0" encoding="UTF-8" standalone="no"?>
<!DOCTYPE svg PUBLIC "-//W3C//DTD SVG 1.1//EN" "http://www.w3.org/Graphics/SVG/1.1/DTD/svg11.dtd">
<svg version="1.1" xmlns="http://www.w3.org/2000/svg" xmlns:xlink="http://www.w3.org/1999/xlink" viewBox="0 0 33 22" width="33" height="22">
   <defs></defs>
   <g fill="none">
      <path fill="black" d="M31.48 0.01L31.52 0.02L31.55 0.04L31.58 0.06L31.61 0.1L31.64 0.13L31.67 0.18L31.7 0.23L31.72 0.28L31.76 0.35L31.84 0.53L31.91 0.71L31.95 0.9L31.98 1.1L32 1.3L31.99 1.5L31.97 1.72L31.93 1.93L31.87 2.16L31.79 2.39L31.7 2.63L31.58 2.88L31.45 3.14L31.3 3.4L31.13 3.68L30.94 3.96L30.73 4.25L30.5 4.55L30.25 4.86L29.99 5.18L29.7 5.51L29.34 5.92L29 6.32L28.68 6.72L28.36 7.13L28.06 7.53L27.77 7.93L27.49 8.34L27.22 8.75L26.96 9.17L26.7 9.6L26.45 10.04L26.21 10.49L25.97 10.95L25.74 11.43L25.51 11.92L25.28 12.43L25.06 12.96L24.83 13.5L24.61 14.07L24.38 14.67L24.16 15.29L24.02 15.67L23.9 16.01L23.78 16.32L23.69 16.59L23.6 16.82L23.53 17.03L23.47 17.21L23.43 17.36L23.39 17.48L23.37 17.59L23.36 17.67L23.36 17.73L23.36 17.78L23.38 17.81L23.42 17.82L23.46 17.83L23.51 17.83L23.56 17.82L23.63 17.8L23.71 17.78L23.79 17.76L23.96 17.73L24.12 17.71L24.28 17.7L24.44 17.71L24.59 17.72L24.75 17.75L24.9 17.79L25.06 17.84L25.21 17.91L25.36 17.98L25.51 18.07L25.67 18.17L25.82 18.28L25.97 18.4L26.12 18.54L26.27 18.69L26.42 18.85L26.58 19.02L26.73 19.21L26.88 19.41L27.04 19.62L27.11 19.72L27.18 19.82L27.26 19.92L27.34 20.01L27.41 20.11L27.49 20.2L27.57 20.28L27.65 20.37L27.72 20.45L27.8 20.52L27.87 20.59L27.95 20.66L28.02 20.72L28.09 20.78L28.16 20.83L28.22 20.88L28.28 20.92L28.34 20.95L28.39 20.98L28.45 21L28.49 21.01L28.58 21.03L28.66 21.06L28.73 21.1L28.8 21.14L28.86 21.18L28.92 21.23L28.96 21.28L29 21.33L29.04 21.39L29.06 21.44L29.08 21.49L29.09 21.55L29.09 21.6L29.08 21.65L29.06 21.7L29.03 21.75L29 21.79L28.95 21.83L28.9 21.86L28.83 21.88L28.76 21.9L28.67 21.92L28.58 21.92L28.49 21.91L28.39 21.89L28.29 21.87L28.19 21.83L28.09 21.78L27.98 21.73L27.87 21.66L27.76 21.59L27.65 21.5L27.53 21.4L27.41 21.3L27.29 21.18L27.16 21.06L27.03 20.92L26.9 20.78L26.77 20.62L26.63 20.46L26.49 20.28L26.34 20.1L26.12 19.81L25.9 19.55L25.69 19.32L25.49 19.12L25.29 18.95L25.09 18.8L24.9 18.68L24.72 18.59L24.53 18.53L24.35 18.49L24.17 18.49L23.99 18.51L23.81 18.56L23.62 18.63L23.44 18.74L23.25 18.87L23.06 19.03L22.87 19.22L22.68 19.43L22.47 19.67L22.27 19.94L22.1 20.16L21.94 20.37L21.79 20.56L21.64 20.74L21.5 20.9L21.37 21.04L21.24 21.17L21.11 21.29L20.98 21.4L20.86 21.5L20.73 21.58L20.61 21.65L20.48 21.71L20.35 21.77L20.22 21.81L20.09 21.85L19.95 21.87L19.8 21.9L19.65 21.91L19.49 21.92L19.32 21.92L19.17 21.92L19.03 21.91L18.9 21.9L18.77 21.88L18.65 21.85L18.52 21.81L18.41 21.77L18.29 21.72L18.17 21.66L18.06 21.59L17.94 21.52L17.83 21.43L17.71 21.33L17.59 21.22L17.47 21.1L17.34 20.96L17.21 20.82L17.07 20.66L16.93 20.48L16.78 20.3L16.62 20.1L16.39 19.81L16.18 19.55L15.97 19.32L15.76 19.11L15.56 18.94L15.37 18.79L15.18 18.67L15 18.58L14.82 18.52L14.64 18.49L14.46 18.49L14.28 18.51L14.1 18.56L13.91 18.64L13.73 18.75L13.54 18.89L13.35 19.05L13.15 19.24L12.95 19.46L12.74 19.71L12.52 19.99L12.35 20.21L12.18 20.42L12.03 20.61L11.88 20.78L11.74 20.94L11.61 21.08L11.48 21.21L11.36 21.32L11.24 21.43L11.12 21.52L11 21.6L10.88 21.67L10.76 21.73L10.64 21.78L10.52 21.82L10.39 21.85L10.26 21.88L10.13 21.9L9.98 21.91L9.83 21.92L9.68 21.92L9.52 21.92L9.36 21.91L9.22 21.9L9.08 21.88L8.95 21.85L8.82 21.81L8.69 21.77L8.57 21.72L8.45 21.66L8.33 21.59L8.21 21.51L8.09 21.42L7.97 21.32L7.85 21.21L7.72 21.09L7.6 20.95L7.47 20.8L7.33 20.64L7.19 20.46L7.04 20.27L6.89 20.06L6.68 19.8L6.48 19.56L6.29 19.34L6.09 19.15L5.9 18.98L5.72 18.84L5.53 18.72L5.35 18.63L5.17 18.56L4.99 18.52L4.82 18.51L4.64 18.51L4.47 18.55L4.29 18.6L4.12 18.68L3.94 18.79L3.76 18.92L3.59 19.08L3.41 19.26L3.23 19.46L3.04 19.69L2.87 19.91L2.71 20.12L2.55 20.31L2.4 20.49L2.26 20.66L2.11 20.82L1.98 20.97L1.84 21.11L1.71 21.23L1.59 21.34L1.46 21.45L1.35 21.54L1.23 21.62L1.12 21.69L1.01 21.75L0.91 21.81L0.8 21.85L0.7 21.88L0.6 21.9L0.5 21.92L0.41 21.92L0.32 21.92L0.25 21.9L0.19 21.88L0.13 21.86L0.09 21.82L0.05 21.79L0.02 21.74L0.01 21.7L0 21.65L0 21.59L0.01 21.54L0.03 21.48L0.05 21.42L0.09 21.37L0.13 21.31L0.18 21.25L0.24 21.2L0.31 21.14L0.39 21.09L0.47 21.05L0.56 21.01L0.64 20.97L0.7 20.94L0.77 20.91L0.83 20.88L0.89 20.85L0.95 20.81L1.01 20.77L1.06 20.73L1.12 20.68L1.18 20.62L1.25 20.56L1.31 20.49L1.38 20.41L1.46 20.33L1.54 20.23L1.63 20.12L1.72 20.01L1.82 19.88L1.93 19.73L2.06 19.58L2.19 19.41L2.33 19.22L2.47 19.05L2.6 18.89L2.73 18.75L2.86 18.61L2.98 18.49L3.09 18.38L3.21 18.28L3.32 18.18L3.44 18.1L3.55 18.03L3.67 17.97L3.78 17.91L3.9 17.86L4.02 17.83L4.14 17.79L4.27 17.77L4.4 17.75L4.53 17.74L4.67 17.73L4.82 17.73L4.88 17.73L4.93 17.73L4.98 17.73L5.03 17.73L5.08 17.73L5.12 17.73L5.17 17.73L5.21 17.72L5.25 17.72L5.29 17.72L5.32 17.72L5.36 17.72L5.39 17.71L5.41 17.71L5.44 17.71L5.46 17.7L5.47 17.7L5.49 17.7L5.5 17.69L5.5 17.69L5.51 17.69L5.51 17.68L5.5 17.67L5.5 17.66L5.5 17.65L5.49 17.64L5.49 17.62L5.48 17.61L5.48 17.59L5.47 17.57L5.46 17.55L5.45 17.52L5.44 17.5L5.43 17.47L5.42 17.45L5.41 17.42L5.4 17.39L5.39 17.36L5.37 17.33L5.36 17.3L5.35 17.27L5.34 17.24L5.12 16.69L4.94 16.15L4.79 15.61L4.68 15.07L4.61 14.53L4.57 13.99L4.56 13.46L4.6 12.94L4.66 12.43L4.76 11.92L4.89 11.43L5.05 10.95L5.25 10.48L5.48 10.03L5.74 9.59L6.04 9.17L6.36 8.77L6.71 8.39L7.1 8.04L7.51 7.7L7.96 7.39L8.18 7.25L8.41 7.12L8.65 6.99L8.9 6.87L9.16 6.75L9.42 6.64L9.7 6.53L10 6.43L10.31 6.33L10.63 6.23L10.97 6.14L11.34 6.04L11.72 5.96L12.12 5.87L12.54 5.79L12.99 5.7L13.46 5.62L13.95 5.54L14.48 5.46L15.03 5.38L15.61 5.3L16.18 5.22L16.73 5.14L17.26 5.05L17.76 4.96L18.23 4.87L18.68 4.78L19.1 4.68L19.5 4.58L19.88 4.47L20.23 4.37L20.55 4.26L20.85 4.15L21.12 4.04L21.37 3.92L21.59 3.8L21.79 3.68L21.96 3.55L22.11 3.42L22.24 3.29L22.33 3.16L22.4 3.02L22.44 2.95L22.48 2.87L22.52 2.8L22.57 2.74L22.62 2.67L22.67 2.61L22.72 2.55L22.78 2.5L22.84 2.45L22.9 2.4L22.97 2.36L23.03 2.32L23.1 2.28L23.17 2.25L23.25 2.22L23.32 2.2L23.4 2.18L23.48 2.16L23.56 2.15L23.64 2.14L23.72 2.14L23.76 2.14L23.81 2.14L23.85 2.13L23.9 2.13L23.95 2.12L23.99 2.11L24.04 2.09L24.1 2.08L24.15 2.06L24.2 2.04L24.26 2.02L24.32 2L24.38 1.97L24.44 1.94L24.5 1.91L24.57 1.88L24.64 1.84L24.71 1.8L24.79 1.76L24.87 1.71L24.95 1.67L25.17 1.54L25.38 1.42L25.57 1.31L25.75 1.21L25.92 1.12L26.08 1.04L26.23 0.97L26.37 0.91L26.5 0.86L26.63 0.81L26.76 0.77L26.88 0.74L27.01 0.71L27.13 0.69L27.26 0.68L27.39 0.67L27.53 0.66L27.67 0.66L27.83 0.66L27.99 0.67L28.17 0.67L28.31 0.68L28.45 0.69L28.58 0.69L28.69 0.69L28.8 0.7L28.9 0.7L28.99 0.69L29.08 0.69L29.16 0.68L29.24 0.67L29.32 0.66L29.4 0.64L29.48 0.62L29.57 0.6L29.66 0.58L29.75 0.55L29.86 0.51L29.97 0.47L30.09 0.43L30.22 0.38L30.36 0.33L30.52 0.27L30.67 0.22L30.8 0.17L30.92 0.13L31.02 0.09L31.11 0.06L31.2 0.04L31.27 0.02L31.33 0.01L31.39 0L31.44 0L31.48 0.01ZM30.88 1.01L30.78 1.04L30.66 1.09L30.51 1.14L30.34 1.21L30.14 1.29L30.01 1.34L29.89 1.39L29.78 1.43L29.68 1.46L29.58 1.49L29.49 1.51L29.39 1.53L29.3 1.54L29.19 1.55L29.08 1.56L28.96 1.56L28.83 1.56L28.68 1.55L28.51 1.54L28.32 1.53L28.08 1.52L27.87 1.52L27.68 1.52L27.5 1.52L27.33 1.54L27.16 1.57L26.99 1.61L26.82 1.67L26.64 1.73L26.45 1.82L26.24 1.92L26.01 2.04L25.76 2.18L25.48 2.34L25.16 2.52L25.04 2.59L24.92 2.66L24.82 2.72L24.72 2.77L24.63 2.81L24.54 2.85L24.46 2.89L24.38 2.92L24.3 2.94L24.23 2.96L24.15 2.97L24.08 2.98L24.01 2.99L23.93 3L23.86 3L23.75 3L23.65 3.01L23.57 3.02L23.49 3.04L23.42 3.06L23.36 3.1L23.31 3.13L23.27 3.18L23.23 3.24L23.2 3.3L23.18 3.38L23.16 3.46L23.15 3.56L23.14 3.66L23.14 3.78L23.14 3.86L23.13 3.94L23.12 4.01L23.1 4.07L23.08 4.13L23.05 4.19L23.02 4.23L22.98 4.27L22.94 4.3L22.9 4.33L22.85 4.35L22.8 4.36L22.74 4.36L22.69 4.35L22.63 4.34L22.6 4.33L22.56 4.33L22.51 4.34L22.46 4.35L22.39 4.36L22.32 4.38L22.24 4.41L22.15 4.44L22.06 4.47L21.96 4.51L21.85 4.55L21.74 4.6L21.62 4.65L21.5 4.71L21.37 4.77L21.07 4.9L20.78 5.03L20.49 5.14L20.21 5.25L19.93 5.35L19.64 5.44L19.34 5.52L19.03 5.6L18.7 5.67L18.34 5.74L17.96 5.81L17.54 5.88L17.08 5.95L16.58 6.02L16.03 6.1L15.27 6.2L14.57 6.3L13.94 6.39L13.35 6.48L12.82 6.58L12.33 6.67L11.89 6.76L11.48 6.85L11.1 6.95L10.75 7.05L10.43 7.15L10.12 7.26L9.83 7.38L9.55 7.5L9.27 7.64L8.45 8.11L7.73 8.63L7.1 9.22L6.57 9.86L6.14 10.55L5.81 11.28L5.58 12.06L5.45 12.87L5.41 13.71L5.48 14.59L5.65 15.48L5.93 16.4L6.3 17.34L6.78 18.28L7.37 19.24L7.69 19.71L8.01 20.11L8.31 20.45L8.6 20.73L8.89 20.94L9.17 21.08L9.45 21.16L9.73 21.18L10.01 21.14L10.29 21.02L10.58 20.85L10.87 20.61L11.17 20.31L11.49 19.94L11.81 19.51L12.18 19.04L12.55 18.63L12.92 18.29L13.28 18.03L13.65 17.83L14.01 17.71L14.38 17.65L14.75 17.67L15.12 17.75L15.49 17.91L15.87 18.14L16.25 18.43L16.63 18.8L17.02 19.24L17.41 19.74L17.82 20.25L18.21 20.66L18.59 20.95L18.97 21.14L19.34 21.22L19.71 21.19L20.07 21.05L20.44 20.8L20.8 20.43L21.17 19.95L21.54 19.35L21.91 18.63L22.3 17.8L22.69 16.85L23.09 15.77L23.48 14.69L23.85 13.7L24.21 12.79L24.56 11.96L24.9 11.19L25.24 10.47L25.59 9.8L25.95 9.15L26.33 8.53L26.74 7.91L27.18 7.3L27.65 6.67L28.17 6.02L28.74 5.34L29.36 4.62L29.6 4.34L29.82 4.08L30.02 3.83L30.2 3.59L30.37 3.37L30.51 3.16L30.64 2.96L30.75 2.77L30.85 2.58L30.93 2.4L30.99 2.23L31.05 2.06L31.09 1.89L31.12 1.72L31.14 1.54L31.15 1.42L31.16 1.31L31.16 1.21L31.15 1.14L31.14 1.08L31.12 1.04L31.08 1.01L31.03 1L30.96 1L30.88 1.01Z" id="bVJhDFAEK"></path>
  </g>
</svg>
